<svg xmlns="http://www.w3.org/2000/svg" version="1.1" xmlns:xlink="http://www.w3.org/1999/xlink" xmlns:svgjs="http://svgjs.dev/svgjs" width="1500" height="719" viewBox="0 0 1500 719"><g transform="matrix(1,0,0,1,-0.9090909090909918,0.31806842582176387)"><svg viewBox="0 0 396 190" data-background-color="#2f5651" preserveAspectRatio="xMidYMid meet" height="719" width="1500" xmlns="http://www.w3.org/2000/svg" xmlns:xlink="http://www.w3.org/1999/xlink"><g id="tight-bounds" transform="matrix(1,0,0,1,0.2400000000000091,-0.0840514616218826)"><svg viewBox="0 0 395.52 190.16810292324377" height="190.16810292324377" width="395.52"><g><svg viewBox="0 0 395.52 190.16810292324377" height="190.16810292324377" width="395.52"><g><svg viewBox="0 0 395.52 190.16810292324377" height="190.16810292324377" width="395.52"><g id="textblocktransform"><svg viewBox="0 0 395.52 190.16810292324377" height="190.16810292324377" width="395.52" id="textblock"><g><rect width="106.79039999999999" height="10.911205752016123" y="164.40625530404373" fill="#bfd7b7" data-fill-palette-color="tertiary"></rect><rect width="106.79039999999999" height="10.911205752016123" y="164.40625530404373" x="288.7296" fill="#bfd7b7" data-fill-palette-color="tertiary"></rect></g><g><svg viewBox="0 0 395.52 120.99224759388562" height="120.99224759388562" width="395.52"><g transform="matrix(1,0,0,1,0,0)"><svg width="395.52" viewBox="-0.22 -38.23 129.35999999999999 39.57" height="120.99224759388562" data-palette-color="#bfd7b7"><path d="M47.14-33.74L47.14-33.74Q47.14-33.37 46.97-32.84L46.97-32.84Q46.39-31.25 45.92-30.08L45.92-30.08 32.98 1.34 23.78-19.21 14.23 1.34-0.22-34.55 13.16-34.55 20.02-16.26 29.32-36.11 37.99-16.31 44.09-30.64Q44.41-31.45 44.63-32.23L44.63-32.23 45.04-33.72Q45.31-34.81 46.23-34.81 47.14-34.81 47.14-33.74ZM57.27-30.35Q54.76-30.35 53.34-31.47 51.93-32.59 51.93-34.42L51.93-34.42Q51.93-35.96 53.49-37.06L53.49-37.06Q55.15-38.23 57-38.23 58.86-38.23 59.87-37.87 60.89-37.5 61.59-36.91L61.59-36.91Q63.01-35.72 63.01-34.13L63.01-34.13Q63.01-32.54 61.4-31.45L61.4-31.45Q59.79-30.35 57.27-30.35ZM52.15 0L52.15-26.07 62.64-26.07 62.64 0 52.15 0ZM88.69 0L88.69-23.41Q88.08-23.8 87.37-23.8 86.66-23.8 85.91-23.47 85.15-23.14 84.32-22.56L84.32-22.56Q82.59-21.31 81.12-19.24L81.12-19.24 81.12 0 70.62 0 70.62-26.07 81.12-26.07 81.12-21.9Q85.3-26.51 90.57-26.51L90.57-26.51Q99.19-26.51 99.19-18.16L99.19-18.16 99.19 0 88.69 0ZM116.94-24.54L116.94-1.56Q118.08-1.34 119.24-1.34 120.4-1.34 121.49-1.53 122.58-1.71 123.55-2.05L123.55-2.05Q125.63-2.78 126.9-3.91L126.9-3.91Q127.8-4.69 128.22-4.69L128.22-4.69Q129.14-4.69 129.14-3.86 129.14-3.03 127.63-1.88L127.63-1.88Q124.11 0.46 119.18 0.46L119.18 0.46Q112.76 0.46 108.81-3.39L108.81-3.39Q104.92-7.2 104.92-13.28L104.92-13.28Q104.92-19.04 109.05-22.8L109.05-22.8Q113.15-26.51 119.35-26.51L119.35-26.51Q122.89-26.51 126.16-25.05L126.16-25.05Q128.65-23.97 128.65-22.83L128.65-22.83Q128.65-22.34 128.37-22.08 128.09-21.83 127.75-21.83L127.75-21.83Q127.24-21.83 126.43-22.39L126.43-22.39Q124.85-23.9 121.72-24.51L121.72-24.51Q120.6-24.73 119.26-24.73 117.91-24.73 116.94-24.54L116.94-24.54Z" opacity="1" transform="matrix(1,0,0,1,0,0)" fill="#bfd7b7" class="wordmark-text-0" data-fill-palette-color="primary" id="text-0"></path></svg></g></svg></g><g transform="matrix(1,0,0,1,106.79039999999999,149.55561343685977)"><svg viewBox="0 0 181.9392 40.612489486384" height="40.612489486384" width="181.9392"><g transform="matrix(1,0,0,1,8,0)"><svg width="165.9392" viewBox="4.7 -35 145.04000000000002 35.5" height="40.612489486384" data-palette-color="#bfd7b7"><path d="M6.2-35L6.2-35 24.55-35Q25.15-35 25.6-34.58 26.05-34.15 26.05-33.5L26.05-33.5Q26.05-32.85 25.6-32.45 25.15-32.05 24.55-32.05L24.55-32.05 7.35-32.05 7.85-32.9 7.85-18.85 7.3-19.5 22.3-19.5Q22.9-19.5 23.35-19.05 23.8-18.6 23.8-18L23.8-18Q23.8-17.35 23.35-16.95 22.9-16.55 22.3-16.55L22.3-16.55 7.4-16.55 7.85-17.05 7.85-2.65 7.6-2.95 24.55-2.95Q25.15-2.95 25.6-2.5 26.05-2.05 26.05-1.45L26.05-1.45Q26.05-0.8 25.6-0.4 25.15 0 24.55 0L24.55 0 6.2 0Q5.6 0 5.15-0.45 4.7-0.9 4.7-1.5L4.7-1.5 4.7-33.5Q4.7-34.1 5.15-34.55 5.6-35 6.2-35ZM31-26.1L31-26.1Q31.4-26.1 31.8-25.85 32.2-25.6 32.4-25.1L32.4-25.1 41.15-4.3 40.5-3.9 49.45-25.1Q49.85-26.1 50.9-26.05L50.9-26.05Q51.4-26.05 51.85-25.73 52.3-25.4 52.3-24.8L52.3-24.8Q52.3-24.5 52.22-24.33 52.15-24.15 52.1-23.95L52.1-23.95 42.3-0.95Q41.9-0.05 40.95 0L40.95 0Q40.5 0.05 40.07-0.23 39.65-0.5 39.45-0.95L39.45-0.95 29.6-23.95Q29.55-24.05 29.5-24.25 29.45-24.45 29.45-24.65L29.45-24.65Q29.45-25.2 29.85-25.65 30.25-26.1 31-26.1ZM69.15 0.5L69.15 0.5Q65.3 0.5 62.35-1.15 59.4-2.8 57.75-5.75 56.1-8.7 56.1-12.65L56.1-12.65Q56.1-16.9 57.77-19.9 59.45-22.9 62.12-24.53 64.8-26.15 67.8-26.15L67.8-26.15Q70-26.15 72.07-25.38 74.15-24.6 75.75-23.08 77.34-21.55 78.34-19.35 79.34-17.15 79.4-14.25L79.4-14.25Q79.4-13.65 78.95-13.23 78.5-12.8 77.9-12.8L77.9-12.8 57.85-12.8 57.25-15.5 76.95-15.5 76.3-14.9 76.3-15.9Q76.05-18.25 74.75-19.9 73.45-21.55 71.62-22.4 69.8-23.25 67.8-23.25L67.8-23.25Q66.3-23.25 64.72-22.65 63.15-22.05 61.87-20.78 60.6-19.5 59.8-17.53 59-15.55 59-12.85L59-12.85Q59-9.9 60.2-7.5 61.4-5.1 63.65-3.7 65.9-2.3 69.09-2.3L69.09-2.3Q70.8-2.3 72.2-2.8 73.59-3.3 74.67-4.13 75.75-4.95 76.45-5.85L76.45-5.85Q77-6.3 77.5-6.3L77.5-6.3Q78.05-6.3 78.42-5.9 78.8-5.5 78.8-5L78.8-5Q78.8-4.4 78.3-3.95L78.3-3.95Q76.8-2.15 74.4-0.83 72 0.5 69.15 0.5ZM97.64-26.15L97.64-26.15Q100.94-26.15 102.92-24.83 104.89-23.5 105.77-21.23 106.64-18.95 106.64-16.2L106.64-16.2 106.64-1.5Q106.64-0.9 106.19-0.45 105.74 0 105.14 0L105.14 0Q104.44 0 104.04-0.45 103.64-0.9 103.64-1.5L103.64-1.5 103.64-16.05Q103.64-18.05 102.99-19.7 102.34-21.35 100.87-22.35 99.39-23.35 96.99-23.35L96.99-23.35Q94.84-23.35 92.92-22.35 90.99-21.35 89.79-19.7 88.59-18.05 88.59-16.05L88.59-16.05 88.59-1.5Q88.59-0.9 88.14-0.45 87.69 0 87.09 0L87.09 0Q86.39 0 85.99-0.45 85.59-0.9 85.59-1.5L85.59-1.5 85.59-23.9Q85.59-24.5 86.02-24.95 86.44-25.4 87.09-25.4L87.09-25.4Q87.74-25.4 88.17-24.95 88.59-24.5 88.59-23.9L88.59-23.9 88.59-19.7 87.44-17.9Q87.54-19.5 88.47-20.98 89.39-22.45 90.84-23.63 92.29-24.8 94.07-25.48 95.84-26.15 97.64-26.15ZM112.84-25.45L112.84-25.45 124.49-25.45Q125.09-25.45 125.49-25.03 125.89-24.6 125.89-24L125.89-24Q125.89-23.45 125.49-23.05 125.09-22.65 124.49-22.65L124.49-22.65 112.84-22.65Q112.24-22.65 111.82-23.08 111.39-23.5 111.39-24.05L111.39-24.05Q111.39-24.65 111.82-25.05 112.24-25.45 112.84-25.45ZM117.99-32.5L117.99-32.5Q118.64-32.5 119.07-32.05 119.49-31.6 119.49-31L119.49-31 119.49-5.9Q119.49-4.5 119.87-3.8 120.24-3.1 120.84-2.88 121.44-2.65 122.04-2.65L122.04-2.65Q122.44-2.65 122.77-2.78 123.09-2.9 123.49-2.9L123.49-2.9Q123.94-2.9 124.27-2.55 124.59-2.2 124.59-1.65L124.59-1.65Q124.59-0.95 123.79-0.48 122.99 0 121.89 0L121.89 0Q121.44 0 120.54-0.08 119.64-0.15 118.69-0.63 117.74-1.1 117.12-2.3 116.49-3.5 116.49-5.75L116.49-5.75 116.49-31Q116.49-31.6 116.92-32.05 117.34-32.5 117.99-32.5ZM130.99-4.05L130.99-4.05Q130.59-4.65 130.61-5.23 130.64-5.8 131.24-6.15L131.24-6.15Q131.64-6.5 132.16-6.45 132.69-6.4 133.14-5.95L133.14-5.95Q134.49-4.2 136.41-3.13 138.34-2.05 140.99-2.05L140.99-2.05Q142.39-2.05 143.76-2.53 145.14-3 146.04-3.98 146.94-4.95 146.94-6.45L146.94-6.45Q146.94-8 146.04-8.95 145.14-9.9 143.71-10.45 142.29-11 140.69-11.4L140.69-11.4Q138.99-11.85 137.39-12.43 135.79-13 134.56-13.88 133.34-14.75 132.59-16 131.84-17.25 131.84-19.05L131.84-19.05Q131.84-21.15 132.99-22.75 134.14-24.35 136.11-25.25 138.09-26.15 140.59-26.15L140.59-26.15Q141.84-26.15 143.29-25.83 144.74-25.5 146.14-24.75 147.54-24 148.64-22.7L148.64-22.7Q149.09-22.25 149.09-21.68 149.09-21.1 148.59-20.65L148.59-20.65Q148.19-20.35 147.66-20.35 147.14-20.35 146.79-20.75L146.79-20.75Q145.59-22.1 143.94-22.8 142.29-23.5 140.39-23.5L140.39-23.5Q138.94-23.5 137.66-23.03 136.39-22.55 135.54-21.6 134.69-20.65 134.69-19.1L134.69-19.1Q134.79-17.65 135.71-16.75 136.64-15.85 138.16-15.25 139.69-14.65 141.59-14.15L141.59-14.15Q143.19-13.75 144.66-13.2 146.14-12.65 147.26-11.83 148.39-11 149.06-9.75 149.74-8.5 149.74-6.6L149.74-6.6Q149.74-4.4 148.51-2.8 147.29-1.2 145.24-0.35 143.19 0.5 140.69 0.5L140.69 0.5Q137.99 0.5 135.46-0.55 132.94-1.6 130.99-4.05Z" opacity="1" transform="matrix(1,0,0,1,0,0)" fill="#bfd7b7" class="slogan-text-1" data-fill-palette-color="secondary" id="text-1"></path></svg></g></svg></g></svg></g></svg></g></svg></g><defs></defs></svg><rect width="395.52" height="190.16810292324377" fill="none" stroke="none" visibility="hidden"></rect></g></svg></g></svg>